<?xml version="1.0" encoding="UTF-8" standalone="no"?>
<!-- Created with Inkscape (http://www.inkscape.org/) -->

<svg
   xmlns:dc="http://purl.org/dc/elements/1.1/"
   xmlns:cc="http://creativecommons.org/ns#"
   xmlns:rdf="http://www.w3.org/1999/02/22-rdf-syntax-ns#"
   xmlns:svg="http://www.w3.org/2000/svg"
   xmlns="http://www.w3.org/2000/svg"
   xmlns:sodipodi="http://sodipodi.sourceforge.net/DTD/sodipodi-0.dtd"
   xmlns:inkscape="http://www.inkscape.org/namespaces/inkscape"
   id="svg4136"
   version="1.1"
   inkscape:version="0.91 r13725"
   width="232.69218"
   height="236.13197"
   viewBox="0 0 232.69218 236.13197"
   sodipodi:docname="Vector The restaurant.svg">
  <metadata
     id="metadata4142">
    <rdf:RDF>
      <cc:Work
         rdf:about="">
        <dc:format>image/svg+xml</dc:format>
        <dc:type
           rdf:resource="http://purl.org/dc/dcmitype/StillImage" />
        <dc:title></dc:title>
      </cc:Work>
    </rdf:RDF>
  </metadata>
  <defs
     id="defs4140" />
  <sodipodi:namedview
     pagecolor="#ffffff"
     bordercolor="#666666"
     borderopacity="1"
     objecttolerance="10"
     gridtolerance="10"
     guidetolerance="10"
     inkscape:pageopacity="0"
     inkscape:pageshadow="2"
     inkscape:window-width="1920"
     inkscape:window-height="1017"
     id="namedview4138"
     showgrid="false"
     inkscape:zoom="2.0782396"
     inkscape:cx="149.69664"
     inkscape:cy="148.8336"
     inkscape:window-x="-8"
     inkscape:window-y="-8"
     inkscape:window-maximized="1"
     inkscape:current-layer="svg4136"
     fit-margin-top="0"
     fit-margin-left="0"
     fit-margin-right="0"
     fit-margin-bottom="0" />
  <path
     style="fill:#000000"
     d="m 76.07249,233.48558 c -6.026406,-4.69976 -3.311966,-12.97693 -3.305371,-19.96265 0.0084,-8.91917 0.413006,-16.84474 0.899075,-17.61239 0.486069,-0.76764 1.594202,-1.12309 2.462516,-0.78989 1.357939,0.52109 1.521532,3.09113 0.851281,17.74374 -0.735286,16.07437 -0.0962,17.85788 5.429701,19.13379 4.403556,1.01677 7.058704,-2.7947 12.012059,-9.15618 7.818929,-10.04167 13.890979,-18.98226 19.758799,-27.28574 3.78575,-5.3625 7.48799,-9.75 8.22722,-9.75 2.43118,0 1.4066,3.76529 -2.36013,8.6734 -8.86565,11.55208 -19.16709,25.33639 -23.658131,31.65685 -8.027036,11.29682 -13.572208,11.8823 -20.317019,7.34907 z m 36.67932,-3.56038 c -5.19552,-0.77451 -7.26306,-1.82976 -6.7283,-3.43405 0.26021,-0.78061 4.07793,-1.04017 12.30279,-0.83643 6.55903,0.16247 15.07551,-0.20072 18.92551,-0.80709 17.56785,-2.76691 37.32228,-11.06456 50.04235,-21.01977 7.22611,-5.65543 10.16379,-7.32125 11.47832,-6.50883 1.64903,1.01916 1.11754,2.33567 -2.27067,5.62457 -19.18979,18.04671 -59.03118,29.97662 -83.75,26.9816 z m 0,-10.04152 c -0.825,-0.57574 -1.03286,-1.05369 -0.46191,-1.06211 33.26656,-0.49071 47.56357,-4.13801 66.12978,-16.87033 13.15057,-9.01838 12.74974,-8.79381 11.48811,-6.43642 -9.93178,9.52841 -21.53105,15.10115 -32.84427,19.69398 -7.68686,3.12063 -40.51746,7.32275 -44.31171,4.67488 z m -53.142846,-9.33254 c -8.136691,-5.01418 -20.620931,-18.29647 -28.432825,-30.25038 -9.01054,-13.7881 -17.27851,-36.41808 -16.53029,-45.2445 0.0583,-0.6875 0.94741,-1.25 1.97585,-1.25 1.50096,0 2.10318,1.23315 3.05223,6.25 2.46099,13.00921 7.68748,25.78618 15.74909,38.50111 5.315352,8.38346 12.160637,16.00728 21.811256,24.29191 7.952587,6.82695 10.243517,9.96405 7.267534,9.95186 -0.6875,-0.003 -2.88928,-1.01532 -4.892845,-2.25 z m -1.011637,-13.37395 c -14.205079,-11.868 -26.703238,-31.33338 -31.740608,-49.43472 -2.37627,-8.5389 -2.43225,-8.93621 -1.25905,-8.93621 0.46523,0 1.84834,3.4875 3.07359,7.75 2.69709,9.38284 10.766959,26.20988 15.767907,32.87873 2.009124,2.6792 7.513883,8.58086 12.232798,13.1148 8.681349,8.34106 9.912801,11.30072 1.925363,4.6274 z m 143.154483,-7.47405 c -6.325,-2.21196 -13.3,-4.60845 -15.5,-5.32554 -7.97237,-2.59858 -12.5,-4.81564 -12.5,-6.1209 0,-2.90987 0.65366,-2.73606 34.18121,9.08885 15.58537,5.49684 21.03547,-0.24666 11.39638,-12.0099 -6.85474,-8.36532 -9.43619,-14.52939 -6.08474,-14.52939 1.6835,0 11.25666,12.51539 13.97217,18.26639 3.75111,7.94423 -0.97817,14.79072 -10.14928,14.69292 -2.09866,-0.0224 -8.99074,-1.85047 -15.31574,-4.06243 z m -136.000001,-0.7228 c 0,-0.45425 4.6125,-1.59282 10.25,-2.53014 18.49079,-3.07439 33.028981,-5.56339 47.250001,-8.0894 31.00872,-5.50793 73.44367,-12.55454 75.60389,-12.55454 1.41952,0 1.93343,0.35128 1.34611,0.92014 -1.03698,1.00438 -16.03473,3.78443 -37.95,7.03457 -16.30053,2.41745 -17.55365,2.62435 -27.5,4.54059 -4.125,0.79471 -11.775,2.15676 -17,3.02678 -11.57589,1.92752 -10.62366,1.76238 -31.500001,5.46304 -18.212639,3.22848 -20.5,3.47272 -20.5,2.18896 z m -9.697556,-7.82831 c -0.317311,-0.8269 -0.30559,-4.40916 0.02605,-7.96058 0.488114,-5.2271 0.336259,-6.40265 -0.797181,-6.17116 -2.257022,0.46098 -2.000745,-1.62334 0.332123,-2.70116 1.175109,-0.54292 2.136564,-1.50032 2.136564,-2.12755 0,-0.62724 0.697777,-1.71953 1.550615,-2.42733 1.309714,-1.08696 1.638549,-0.95063 2.116631,0.87756 0.327601,1.25275 1.359322,2.16445 2.449385,2.16445 3.011931,0 2.172599,2.69215 -1.039627,3.3346 -2.69881,0.53976 -2.976526,1.01304 -3.620937,6.17073 -0.383867,3.07237 -0.439476,5.84459 -0.123574,6.1605 0.315902,0.3159 1.663358,0.30104 2.994348,-0.033 2.825075,-0.70905 3.924501,-3.16427 6.216617,-13.88282 1.187519,-5.55316 2.089478,-7.75 3.181923,-7.75 1.541362,0 1.496633,1.28293 -0.293379,8.4149 -0.636557,2.53625 -0.556726,2.59905 1.887898,1.48521 4.565116,-2.08001 5.791541,-0.69964 5.042301,5.67522 -0.607662,5.17026 -0.506766,5.59943 1.238112,5.2664 1.49793,-0.28589 2.013693,-1.49604 2.438758,-5.72214 0.59364,-5.9021 3.542825,-9.46538 7.38021,-8.91696 3.265277,0.46666 2.673909,7.04689 -0.975653,10.85621 -2.737759,2.85759 -2.754786,2.94115 -0.599334,2.94115 1.220161,0 2.477497,-0.675 2.79408,-1.5 0.599669,-1.56271 3.361626,-2.11674 3.361626,-0.67431 0,0.45412 -1.041503,1.80412 -2.314451,3 -2.387925,2.24334 -6.126167,2.88843 -7.148878,1.23365 -0.335354,-0.54262 -1.770116,-0.25842 -3.390601,0.67161 -1.600945,0.91882 -3.580874,1.31618 -4.603267,0.92385 -1.490558,-0.57198 -1.713034,-1.53137 -1.315209,-5.67162 0.313277,-3.26034 0.09741,-4.97789 -0.624387,-4.96787 -2.799602,0.0389 -4.941865,3.27438 -5.978359,9.02928 -0.636979,3.53668 -0.650786,3.54488 -6.191939,3.67461 -4.106941,0.0962 -5.703815,-0.26159 -6.130465,-1.37343 z m 32.67532,-14.09577 c 0.01223,-0.6875 -0.411931,-1.25 -0.94258,-1.25 -1.25653,0 -3.041323,3.36721 -3.012948,5.68426 0.0187,1.52746 0.332714,1.41882 1.977764,-0.68426 1.075541,-1.375 1.965534,-3.0625 1.977764,-3.75 z m 11.908497,7.63626 c -1.820021,-1.82002 -2.020691,-2.82747 -1.444091,-7.25 0.36831,-2.82494 0.918281,-6.14876 1.222151,-7.38626 0.40019,-1.62974 0.1091,-2.25 -1.055911,-2.25 -2.80357,0 -1.73889,-2.61479 1.852111,-4.54867 1.90329,-1.02499 3.71782,-1.60632 4.03229,-1.29185 0.31447,0.31447 -0.35058,4.71256 -1.47789,9.77353 -1.12731,5.06097 -1.79028,9.62144 -1.47327,10.13438 0.94434,1.52798 4.32987,1.06109 6.25334,-0.86238 0.98725,-0.98725 2.37268,-4.47475 3.07874,-7.75 2.431,-11.27681 3.18617,-13.45501 4.66481,-13.45501 1.83058,0 1.83485,-0.11323 -0.37861,10.05066 -1.79801,8.25621 -1.83879,10.94934 -0.1658,10.94934 1.17967,0 5.00587,-8.22181 5.00587,-10.75671 0,-2.58648 1.77315,-3.87014 3.27348,-2.36981 0.79895,0.79895 1.57431,0.66926 2.83846,-0.47479 0.95659,-0.8657 2.56023,-1.41309 3.56366,-1.21642 1.48783,0.2916 1.8244,1.32275 1.8244,5.58942 0,8.06732 3.49038,6.0069 4.95523,-2.92514 0.32954,-2.0094 1.31304,-3.92739 2.18555,-4.2622 1.60825,-0.61714 1.52896,1.48766 -0.35019,9.29603 -0.39913,1.6585 -0.18791,2.25206 0.69649,1.95726 1.2792,-0.4264 3.93075,-4.95742 5.93627,-10.14403 1.71747,-4.44166 2.8508,-2.28253 1.71424,3.26583 -1.31123,6.40098 0.18051,8.66691 3.5123,5.33512 2.52552,-2.52553 3.78369,-11.46473 1.92828,-13.70037 -0.90194,-1.08678 -0.89614,-1.58866 0.025,-2.15794 3.16051,-1.9533 5.11809,7.21033 2.83024,13.24865 -2.34325,6.18452 -8.58094,9.55421 -10.69457,5.77737 -0.7468,-1.33446 -1.10433,-1.26836 -2.70467,0.5 -1.92679,2.12907 -5.53415,2.78599 -5.53415,1.00779 0,-0.56646 -1.30722,-0.0635 -2.90493,1.11777 -4.15094,3.06893 -5.16683,1.89215 -4.43242,-5.13437 0.41278,-3.94927 0.2621,-5.95346 -0.44761,-5.95346 -1.7743,0 -5.13758,4.99755 -6.31298,9.38055 -1.45051,5.40888 -1.82999,5.92415 -3.40206,4.61945 -0.9619,-0.79831 -1.51208,-0.78947 -2.02007,0.0325 -0.38643,0.62526 -1.74804,0.86607 -3.04974,0.53936 -1.47386,-0.36991 -3.57936,0.15833 -5.64091,1.41524 -4.1532,2.53218 -5.28446,2.51775 -7.90302,-0.10081 z m 60.3023,-9.92522 c -2.64757,-2.46659 -2.82227,-6.56429 -0.48849,-11.45828 1.66002,-3.48109 5.06902,-5.38154 7.24309,-4.03789 0.58126,0.35924 1.05684,2.22697 1.05684,4.15052 0,2.65746 -0.76692,4.19782 -3.19349,6.41416 -3.58123,3.27094 -3.14737,4.82809 0.9443,3.38913 1.89831,-0.6676 3.57212,-2.69174 5.57982,-6.74767 2.72775,-5.51057 2.78388,-5.887 1.14743,-7.69526 -0.94634,-1.04569 -1.45517,-2.59302 -1.13073,-3.4385 0.85773,-2.2352 4.39767,-1.88223 5.7097,0.56931 0.88691,1.65722 1.74764,1.98251 4.03518,1.525 3.29832,-0.65967 3.65298,0.44088 1.40779,4.36844 -1.61505,2.82523 -1.98252,8 -0.56809,8 1.23612,0 4.48028,-4.63868 6.30398,-9.0138 1.02974,-2.47038 1.16493,-3.989 0.45525,-5.11408 -1.38506,-2.19576 -0.17101,-4.87212 2.21009,-4.87212 2.01829,0 3.70689,3.20702 2.61707,4.97038 -0.33593,0.54356 -0.095,1.95209 0.53546,3.13006 1.69942,3.17541 1.38969,8.75207 -0.60875,10.96032 -1.86182,2.05729 -6.44501,2.67359 -6.44501,0.86666 0,-0.58992 -1.17309,-0.14983 -2.60687,0.97799 -2.07778,1.63438 -3.01661,1.83128 -4.62565,0.97015 -1.77806,-0.95159 -1.94313,-1.72399 -1.38439,-6.47799 0.52012,-4.42538 0.36263,-5.39757 -0.87435,-5.39757 -0.82981,0 -1.50874,0.7266 -1.50874,1.61467 0,2.91497 -5.06335,10.99154 -7.96558,12.70592 -3.70044,2.18591 -5.18675,2.1178 -7.84586,-0.35955 z m 4.63828,-9.48034 c 0.62429,-1.37016 0.71222,-2.64754 0.20387,-2.96172 -1.00695,-0.62233 -4.03071,3.25771 -4.03071,5.17214 0,1.96134 2.614,0.45146 3.82684,-2.21042 z m 27.67316,1.5193 c 0.34913,-1.1 0.32227,-2.98462 -0.0597,-4.18805 -0.65257,-2.05608 -0.8049,-1.98068 -2.52547,1.25 -2.33799,4.39 -2.33602,4.93805 0.0178,4.93805 1.06294,0 2.21826,-0.9 2.56739,-2 z m 29.03351,4.05422 c -0.32149,-0.52018 0.5046,-4.06309 1.83576,-7.87315 7.39674,-21.17111 5.61171,-52.66077 -4.28103,-75.521405 -2.16542,-5.00397 -2.03799,-6.65966 0.5126,-6.65966 2.35402,0 6.82459,11.33153 9.86313,25 2.58626,11.633945 2.7429,13.608535 2.26085,28.499995 -0.37985,11.73391 -1.06544,17.99973 -2.57135,23.5 -3.10598,11.34452 -5.81176,15.97995 -7.61996,13.05422 z m -22.87852,-1.88296 c -2.23085,-2.46506 -2.07871,-8.00845 0.31965,-11.64697 3.47273,-5.26844 9.02536,-5.48987 9.02536,-0.35991 0,3.05012 -4.05897,7.83562 -6.64602,7.83562 -0.74469,0 -1.35398,0.375 -1.35398,0.83333 0,1.84355 1.46434,2.09244 3.69842,0.62862 2.59846,-1.70258 4.51488,-1.18138 3.67773,1.0002 -0.40322,1.05078 -5.23303,3.53785 -6.87039,3.53785 -0.10768,0 -0.94053,-0.82293 -1.85077,-1.82874 z m 4.51627,-8.82625 c 2.15774,-1.95272 2.36138,-3.34501 0.48926,-3.34501 -0.73672,0 -1.85207,1.125 -2.47857,2.5 -1.31939,2.89576 -0.60981,3.19718 1.98931,0.84501 z m -160.671261,5.65499 c -0.339919,-0.55 -0.253976,-1.00807 0.190983,-1.01794 1.676445,-0.0372 20.119785,-3.05686 60.809018,-9.95616 35.56856,-6.03103 51.02038,-8.57392 76.5,-12.58953 1.925,-0.30338 4.5125,-0.75925 5.75,-1.01304 1.2375,-0.25379 2.25,-0.0348 2.25,0.48672 0,1.16493 -4.29715,2.01585 -33.5,6.63359 -12.65,2.00031 -27.5,4.49061 -33,5.53402 -5.5,1.0434 -14.275,2.54756 -19.5,3.34257 -5.225001,0.79502 -20.343644,3.2757 -33.596984,5.51263 -27.548795,4.64974 -25.103837,4.36024 -25.903017,3.06714 z m 173.923511,-4.759 c 6.50741,-20.50302 5.9766,-45.46676 -1.36267,-64.086655 -2.2091,-5.60452 -2.58272,-8.15434 -1.19483,-8.15434 0.97203,0 4.16716,8.43759 6.62687,17.5 2.53088,9.324635 3.0971,31.086935 1.09278,41.999995 -0.90914,4.95 -2.14242,10.2375 -2.74064,11.75 -1.18118,2.98645 -3.33454,3.86771 -2.42151,0.991 z m -78.75708,-1.66789 c -0.6533,-1.70246 1.80418,-4.01833 3.28977,-3.10018 1.56671,0.96828 1.25609,3.23163 -0.53799,3.92008 -2.121,0.81391 -2.12532,0.81262 -2.75178,-0.8199 z m -97.095002,-1.14454 c -1.983716,-1.98371 -2.007638,-5.68435 -0.06108,-9.44859 1.841857,-3.56175 3.779567,-4.66684 8.98965,-5.12683 3.115455,-0.27506 3.928555,-0.0282 3.676919,1.11609 -0.177695,0.80809 -0.585076,3.68138 -0.905291,6.3851 -0.467079,3.94375 -0.304315,4.82893 0.823081,4.4763 1.904471,-0.5957 4.576345,-6.36714 5.430886,-11.73111 0.605616,-3.80147 0.481433,-4.3162 -0.912275,-3.78139 -1.011397,0.38811 -1.613319,0.0963 -1.613319,-0.78214 0,-0.77067 0.876981,-1.67957 1.948848,-2.01976 1.071866,-0.3402 2.22719,-1.49553 2.567387,-2.56739 0.724896,-2.28395 3.483765,-2.6394 3.483765,-0.44885 0,0.85333 0.898148,1.5 2.083333,1.5 2.802657,0 1.920909,2.29286 -1.157472,3.00984 -2.146735,0.49999 -2.530415,1.33829 -3.334534,7.28557 -1.005625,7.43763 -0.54907,8.80519 2.066411,6.18971 2.441083,-2.44108 3.110132,0.009 0.722813,2.64687 -1.229813,1.35893 -2.642983,1.85984 -4.334665,1.53645 -1.380485,-0.2639 -3.840247,0.2081 -5.466139,1.04888 -2.183929,1.12935 -3.400899,1.25096 -4.65862,0.4655 -1.256282,-0.78456 -2.18974,-0.6941 -3.56179,0.34518 -2.433406,1.84323 -3.869926,1.81855 -5.787908,-0.0994 z m 5.803871,-3.29078 c 0.926901,-1.02421 2.090233,-3.27421 2.585182,-5 0.828404,-2.88848 0.711321,-3.13779 -1.473584,-3.13779 -2.673561,0 -5.486898,3.36142 -5.486898,6.55584 0,3.78871 1.791886,4.43659 4.3753,1.58195 z m 29.56612,-3.70837 c -0.772741,-0.9311 -0.949329,-3.21055 -0.516867,-6.67186 0.845823,-6.76973 0.806083,-7.25756 -0.59122,-7.25756 -2.270765,0 -1.849933,-2.17141 0.640772,-3.30625 1.389242,-0.63298 2.525895,-1.78737 2.525895,-2.56532 0,-1.71182 2.698971,-2.92452 3.526992,-1.58476 0.325073,0.52598 0.312927,1.40633 -0.02699,1.95633 -0.352463,0.5703 0.517393,1 2.024316,1 3.275285,0 2.836618,2.20849 -0.598455,3.01294 -2.042916,0.47843 -2.611655,1.50314 -3.60282,6.49126 -1.22971,6.18862 -1.044569,7.4958 1.061662,7.4958 3.032855,0 5.641981,-4.77472 7.408496,-13.55761 1.420271,-7.0614 2.18413,-9.00693 3.646943,-9.28864 1.929438,-0.37157 1.926898,0.55135 -0.02289,8.31992 -0.630078,2.51043 -0.534285,2.61637 1.319202,1.45884 1.099236,-0.68648 2.795186,-0.94248 3.768766,-0.56888 1.50155,0.5762 1.68341,1.51978 1.19847,6.21844 -0.49718,4.81712 -0.35358,5.49715 1.10162,5.21691 1.173909,-0.22608 1.885099,-1.81102 2.382959,-5.31062 1.02399,-7.19787 6.65354,-11.79375 9.80095,-8.00135 1.62915,1.96301 0.62865,5.62524 -2.57782,9.43592 -1.84569,2.19347 -2.16809,3.07707 -1.12274,3.07707 0.80655,0 2.02665,-0.675 2.71134,-1.5 1.72115,-2.07386 3,-1.87571 3,0.46482 0,2.59724 -3.51912,4.38136 -7.19284,3.64661 -1.79029,-0.35806 -4.1274,0.0199 -5.94967,0.96226 -4.504129,2.32918 -6.193699,0.50631 -5.332759,-5.75349 0.54957,-3.99586 0.39431,-4.8202 -0.90784,-4.8202 -2.125352,0 -4.28662,3.6399 -5.074171,8.54568 l -0.649475,4.04568 -5.389033,0.12617 c -3.555166,0.0832 -5.788459,-0.3551 -6.562793,-1.28811 z m 30.858581,-10.62942 c 1.37684,-1.37684 1.60673,-3.8 0.36052,-3.8 -0.46172,0 -1.35207,1.125 -1.97857,2.5 -1.2059,2.64668 -0.38676,3.30481 1.61805,1.3 z m 15.06104,5.72771 c -0.56211,-0.56212 0.34237,-6.15331 1.74351,-10.77771 0.34778,-1.14785 -0.009,-1.75 -1.03716,-1.75 -2.20033,0 -1.95173,-1.72394 0.43261,-3 2.4415,-1.30665 2.76742,-6 0.41667,-6 -0.87084,0 -1.39686,-0.5625 -1.16895,-1.25 0.43059,-1.29891 8.21639,-3.48694 13.00228,-3.654 4.3244,-0.15096 3.21366,1.75845 -1.75,3.00832 -3.82806,0.96391 -4.5,1.50564 -4.5,3.62794 0,2.40035 0.17525,2.46855 4.62785,1.80084 2.54532,-0.3817 5.24152,-0.92948 5.99157,-1.2173 0.75005,-0.28782 1.63417,0.18146 1.96471,1.04285 0.543,1.41504 0.82857,1.41704 2.95947,0.0208 1.43315,-0.93904 3.20266,-1.2774 4.51017,-0.86242 1.97667,0.62738 2.0959,1.12942 1.46584,6.17226 -0.61817,4.94773 -0.50794,5.45508 1.11721,5.14211 1.21868,-0.2347 2.07192,-1.70679 2.63262,-4.5421 1.04255,-5.27178 5.6749,-9.59239 9.3071,-8.68076 1.94694,0.48865 2.42346,0.22301 2.42346,-1.35094 0,-3.3661 2.13122,-8.25763 3.59783,-8.25763 1.69411,0 1.69418,-0.004 -0.11783,7.5 -1.76457,7.30793 -1.87992,12.20003 -0.30009,12.72664 0.69125,0.23041 0.89447,1.13716 0.49068,2.1894 -0.50142,1.30668 -1.34018,1.63272 -3.07812,1.19652 -1.31389,-0.32976 -3.63607,0.0475 -5.16039,0.8383 -1.96035,1.01704 -3.31226,1.14845 -4.6192,0.449 -1.33602,-0.71502 -2.45838,-0.56114 -4.0528,0.55564 -1.2128,0.84947 -3.06309,1.5445 -4.11175,1.5445 -1.73912,0 -1.84701,-0.52722 -1.22784,-6 0.55795,-4.93166 0.41582,-6 -0.79825,-6 -2.04188,0 -5.34471,4.44243 -6.16857,8.29696 -0.37654,1.76167 -1.15543,3.78684 -1.73087,4.50037 -1.94074,2.40648 -2.54238,-0.7974 -1.21889,-6.4909 1.49657,-6.438 0.99675,-6.90604 -5.39652,-5.05349 -4.0921,1.18575 -4.47473,1.59625 -5.59297,6.00031 -0.66019,2.60012 -0.99975,4.92809 -0.75456,5.17327 0.24518,0.24519 1.55381,0.0245 2.90806,-0.49036 1.35425,-0.51486 3.10798,-0.93613 3.89718,-0.93613 1.83002,0 1.87956,2.61539 0.0627,3.31257 -2.57807,0.98929 -10.13929,1.84265 -10.76681,1.21514 z m 40.51178,-10.77771 c 0.78041,-1.2375 1.73185,-3.29635 2.11432,-4.57523 0.62477,-2.08909 0.41004,-2.2922 -2.11433,-2 -1.77368,0.20531 -3.34392,1.28143 -4.25843,2.91841 -2.72608,4.87964 1.30454,8.34083 4.25844,3.65682 z m 33.05428,9.13205 c -1.54507,-2.49998 -2.22475,-8.39968 -1.49762,-12.99948 0.57499,-3.63735 0.45502,-4.88257 -0.47042,-4.88257 -0.68323,0 -1.54939,1.2375 -1.92478,2.75 -0.98001,3.94855 -4.43453,7.25 -7.58615,7.25 -3.87452,0 -5.32692,-2.2297 -4.56325,-7.00542 0.50844,-3.17962 0.33032,-3.99458 -0.87306,-3.99458 -0.8315,0 -1.51182,-0.6 -1.51182,-1.33333 0,-2.05507 1.17868,-2.76327 2.61503,-1.5712 0.94883,0.78746 1.90982,0.65032 3.56452,-0.50868 2.86296,-2.00529 7.4273,-2.05371 8.18208,-0.0868 0.31658,0.825 1.44005,1.5 2.49661,1.5 1.41798,0 2.27483,-1.19831 3.27221,-4.57625 1.72365,-5.83765 5.90682,-11.007155 8.19611,-10.128675 2.2068,0.84683 2.12023,4.405695 -0.21876,8.993485 l -1.8922,3.71145 2.1422,0.0333 c 2.11799,0.0329 2.11552,0.0555 -0.21858,2 -1.29844,1.0817 -3.03842,1.96673 -3.86664,1.96673 -1.08167,0 -1.32833,0.63379 -0.87566,2.25 1.66257,5.93608 1.74654,10.4709 0.25977,14.02923 -1.52546,3.65094 -3.86283,4.81428 -5.22959,2.60282 z m 3.50261,-8.19107 c -0.0386,-1.75504 -0.41411,-4.06992 -0.83436,-5.14417 -0.64832,-1.6573 -0.86409,-1.45313 -1.42425,1.34768 -0.75737,3.78687 0.11282,8.35709 1.43557,7.53958 0.49133,-0.30366 0.8617,-1.98805 0.82304,-3.74309 z m -11.48641,-4.91349 c 2.39365,-3.41741 1.99956,-5.77749 -0.96474,-5.77749 -1.70151,0 -2.8824,0.79222 -3.63146,2.43623 -2.23375,4.90254 1.56723,7.66571 4.5962,3.34126 z m 14.9552,-14.52749 c 0.90907,-1.7875 1.26354,-3.25 0.7877,-3.25 -0.93584,0 -3.1862,4.38865 -3.1862,6.21372 0,1.45961 0.40079,0.96438 2.3985,-2.96372 z M 21.751809,127.30218 c -6.875,-2.30086 -13.9548805,-4.93631 -15.7330705,-5.85657 -6.76133999,-3.49917 -8.20494,-12.4091 -2.38434,-16.80963 6.5366205,-4.941855 15.7259305,-7.035135 22.6579205,-9.177675 8.73778,-2.69017 12.517367,-3.99659 13.278259,-2.59416 0.896955,1.65322 -2.254689,3.07497 -10.146249,5.84137 -13.41095,4.701215 -22.9694405,8.254805 -24.3450705,9.630435 -1.88517,1.88517 -0.9824,6.81408 1.08417,8.68181 0.9625,0.86989 7.8063305,3.82863 16.0171605,6.50147 8.21082,2.67283 15.09173,5.34855 15.29089,5.94604 0.81523,2.44568 -3.87845,1.79981 -15.71967,-2.16309 z m 186.000001,1.61249 c 0,-1.08108 4.99079,-2.45096 5.83904,-1.6027 0.81093,0.81093 -1.90902,2.4599 -4.08904,2.47898 -0.9625,0.008 -1.75,-0.38591 -1.75,-0.87628 z M 39.251809,119.85402 c 1.1,-0.54266 16.85,-3.44635 35,-6.45266 18.15,-3.0063 53.175171,-8.87333 77.833711,-13.03784 40.32287,-6.809995 49.94953,-7.974155 45.54159,-5.507345 -1.38237,0.77361 -6.86235,1.75009 -35.8753,6.392625 -67.475101,10.79709 -103.171612,16.6332 -107.000001,17.4937 -6.787359,1.52558 -17.96398,2.32707 -15.5,1.11152 z m 6.5,-7.96907 c 0,-1.57219 0.9,-7.2326 2,-12.578685 2.555053,-12.41776 2.556852,-12.86471 0.04548,-11.29633 -2.496849,1.55931 -3.758914,0.36237 -1.937979,-1.83798 3.534765,-4.27128 15.8438,-7.01439 18.692499,-4.16569 0.66,0.66 1.198318,2.3475 1.196262,3.75 -0.0038,2.60357 -3.34898,9.0243 -4.731564,9.0818 -0.420584,0.0175 -1.560547,0.63571 -2.533252,1.37381 -1.685781,1.2792 -1.675744,1.55853 0.214463,5.968195 2.134272,4.97906 2.61896,5.2372 6.507038,3.46567 1.687193,-0.76873 2.547053,-1.96114 2.547053,-3.53211 0,-6.369885 5.421886,-12.861975 8.563922,-10.254315 2.182944,1.81168 1.722764,5.70453 -1.113993,9.423705 -2.961286,3.88244 -1.840277,5.40473 1.845212,2.50572 3.196023,-2.51399 7.188979,-10.547885 7.197989,-14.482475 0.0054,-2.34719 0.496478,-3.06954 2.25687,-3.31955 1.771572,-0.2516 2.256942,0.17367 2.282646,2 0.01796,1.27575 0.869464,4.74307 1.892241,7.70516 1.735894,5.027345 1.937547,5.239945 3.031436,3.196 0.984737,-1.83999 3.997987,-10.76745 4.032857,-11.94824 0.006,-0.20165 -0.88918,-0.13128 -1.98918,0.15638 -1.34356,0.35135 -2,0.0307 -2,-0.97699 0,-0.825 0.84515,-1.72101 1.8781,-1.99113 1.03296,-0.27013 2.38942,-1.61335 3.01435,-2.98493 1.22776,-2.69464 3.795361,-2.68144 3.313711,0.017 -0.21153,1.18516 0.44201,1.64626 2.33334,1.64626 3.36812,0 2.76643,2.385 -0.70664,2.80099 -2.12274,0.25425 -2.693,1.08122 -3.672881,5.32629 -1.49117,6.4601 -1.46661,8.87648 0.09,8.85741 2.14542,-0.0263 3.4154,-1.37595 4.16252,-4.4237 1.25786,-5.13126 4.21657,-8.23016 9.01027,-9.43723 2.45457,-0.61807 4.77109,-1.12376 5.14784,-1.12376 0.67362,0 0.0243,5.33513 -1.18673,9.75 -0.43516,1.58647 -0.18734,2.25 0.84034,2.25 0.94829,0 1.88148,-1.89455 2.67105,-5.42272 1.12651,-5.03377 3.41767,-8.59765 4.70177,-7.31355 0.3018,0.3018 0.0684,2.27842 -0.51859,4.3925 -1.4579,5.25039 -1.34777,7.34377 0.38635,7.34377 1.71176,0 3.26339,-2.62271 4.90399,-8.2892 0.64632,-2.23233 1.75537,-4.25219 2.46456,-4.48859 1.00822,-0.33607 1.14158,0.95587 0.6115,5.92399 -0.61219,5.7377 -0.52683,6.20835 0.88033,4.8538 2.74163,-2.63914 5.56517,-10.44451 4.4798,-12.38396 -1.42877,-2.55307 -0.18749,-4.80936 2.44053,-4.43618 1.63548,0.23224 2.23028,0.96012 2.16638,2.65106 -0.0798,2.1113 0.22641,2.27191 3.25,1.70468 3.86066,-0.72426 3.79209,-0.86641 1.83809,3.81016 -0.825,1.9745 -1.5,4.54196 -1.5,5.70545 0,3.62366 2.29697,1.56819 3.93791,-3.52388 1.82352,-5.65865 4.77002,-8.07399 10.9309,-8.96039 3.90972,-0.56252 4.29633,-0.44144 3.67899,1.15224 -1.30575,3.37095 -1.86366,11.28086 -0.79565,11.28086 1.29084,0 4.24787,-7.23811 4.24787,-10.39779 0,-2.71906 2.45006,-5.30104 3.46772,-3.65444 0.42868,0.69361 1.65943,0.52072 3.66087,-0.51426 4.52212,-2.33848 6.2685,-0.48461 5.43839,5.77311 -0.34973,2.63636 -0.24011,4.79338 0.24359,4.79338 1.64533,0 3.9648,-3.48958 4.65279,-7 0.37728,-1.925 0.90768,-4.2875 1.17868,-5.25 0.35512,-1.26124 -0.0847,-1.75 -1.57465,-1.75 -2.80253,0 -2.61762,-1.8403 0.29623,-2.94815 1.29998,-0.49425 2.63586,-1.60811 2.96861,-2.47525 0.76893,-2.0038 2.66777,-2.05832 2.66777,-0.0766 0,0.99648 0.99651,1.5 2.96862,1.5 2.22792,0 2.82499,0.37426 2.39301,1.5 -0.31659,0.825 -1.6636,1.5 -2.99337,1.5 -2.79434,0 -4.19142,2.78238 -4.60289,9.16693 -0.29401,4.56204 1.0943,5.83054 3.61856,3.30628 1.48809,-1.48809 1.61607,-1.46173 1.61607,0.33292 0,2.92562 -2.56422,4.52627 -6.28401,3.92263 -1.99835,-0.32428 -4.01098,0.0138 -5.18267,0.87053 -1.05357,0.77039 -2.77348,1.40071 -3.82202,1.40071 -1.69158,0 -1.86728,-0.63767 -1.55887,-5.65787 0.23026,-3.74824 -0.0532,-5.79445 -0.83993,-6.0625 -2.00854,-0.68439 -5.21427,3.44462 -6.43342,8.2863 -1.26126,5.00891 -1.88598,5.49071 -7.57646,5.84322 -2.09144,0.12956 -4.59684,0.59123 -5.56756,1.02593 -0.97072,0.4347 -2.71549,0.54179 -3.87727,0.23798 -1.16178,-0.30381 -3.11665,0.10567 -4.34416,0.90996 -4.35836,2.85572 -7.33262,-0.93522 -5.30258,-6.75859 0.81162,-2.32822 0.75582,-3.22687 -0.23853,-3.84141 -0.92931,-0.57435 -2.12513,0.94739 -4.20996,5.35738 -3.14843,6.65981 -4.64132,8.01735 -9.26256,8.42282 -8.42472,0.73919 -10.13928,0.98547 -11.75,1.687745 -0.9625,0.41965 -2.44858,0.49494 -3.3024,0.1673 -0.85381,-0.32764 -2.65461,0.12649 -4.00177,1.00918 -1.41889,0.92969 -3.39522,1.35702 -4.6976,1.01571 -1.23653,-0.32404 -3.71044,-0.061 -5.49758,0.58449 -2.460571,0.88875 -3.530261,0.89274 -4.406591,0.0164 -0.87632,-0.87632 -1.78679,-0.71768 -3.750651,0.65352 -3.609018,2.51988 -7.757411,3.35261 -10.197116,2.04692 -1.592503,-0.85228 -2.442601,-0.77079 -3.72948,0.35752 -2.651578,2.32484 -5.60999,2.82562 -7.693291,1.30228 -1.706342,-1.24771 -2.247929,-1.13047 -4.835448,1.04679 -4.322011,3.63673 -6.670316,2.77269 -9.923009,-3.65109 -1.531714,-3.025 -3.321618,-5.499995 -3.977564,-5.499995 -0.68464,0 -1.78116,3.060355 -2.57435,7.184945 -1.427361,7.42229 -4.163151,10.96675 -4.163151,5.39375 z m 42.050217,-11.71077 c 1.000695,-2.632025 0.462882,-6.367915 -0.916716,-6.367915 -1.097947,0 -3.35296,6.835885 -2.637104,7.994165 1.082612,1.7517 2.51952,1.09416 3.55382,-1.62625 z m -13.08202,-4.117915 c 0.01749,-0.6875 -0.345965,-1.25 -0.807682,-1.25 -1.099585,0 -3.198951,4.62823 -2.442495,5.384685 0.724785,0.72478 3.206876,-2.432785 3.250177,-4.134685 z m 37.175834,0.68695 c 0.97114,-1.34032 2.05981,-3.67445 2.41925,-5.18695 0.55367,-2.32978 0.33488,-2.75 -1.43182,-2.75 -3.14561,0 -5.68485,4.75911 -5.24661,9.83333 0.16201,1.875855 2.17554,0.97934 4.25918,-1.89638 z m -55.448365,-2.89295 c 3.866396,-2.35749 6.735825,-6.47717 5.94567,-8.53628 -0.658121,-1.71503 -7.14648,-2.11743 -8.143008,-0.50501 -0.915221,1.48085 -2.299451,10.99791 -1.598983,10.99355 0.33036,-0.002 2.038705,-0.88057 3.796321,-1.95226 z m 101.731405,-3.61393 c 2.0761,-2.0761 3.0852,-6.3178 1.80707,-7.59593 -2.57921,-2.57921 -7.39343,3.70241 -5.87337,7.66362 0.74016,1.92882 2.0923,1.90631 4.0663,-0.0677 z M 18.996759,86.016705 c 1.19332,-8.8969 13.50364,-29.445604 25.085267,-41.872978 7.945077,-8.525269 21.787157,-19.33746 24.756377,-19.33746 3.625477,0 1.898277,2.935752 -4.139449,7.035893 -9.105545,6.183458 -22.891705,20.3894 -29.078675,29.964105 -3.02089,4.675 -7.44284,12.8875 -9.82657,18.25 -2.67291,6.01306 -4.90344,9.75 -5.81964,9.75 -1.1422,0 -1.36811,-0.87596 -0.97731,-3.78956 z m 10.23522,-1.21044 c 2.27967,-8.08442 12.097146,-23.98836 20.634585,-33.427245 5.871514,-6.491474 16.211209,-14.572753 18.645292,-14.572753 0.847017,0 -0.439987,1.422913 -2.860009,3.162029 -11.80433,8.483026 -27.528138,29.500389 -32.648348,40.628489 -2.24204,4.87278 -4.93233,8.32605 -3.77152,4.20948 z m 42.51983,-0.89735 c 0,-0.80788 3.438106,-1.55058 16.75,-3.6183 2.626801,-0.40802 4.25,-0.27499 4.25,0.3483 0,1.08025 -1.815528,1.5554 -12,3.14055 -8.009029,1.24656 -9,1.26082 -9,0.12945 z m 36.550001,-6.00585 c 0.5225,-0.49676 16.475,-3.44574 35.45,-6.55331 18.975,-3.10756 35.57117,-5.91463 36.88038,-6.23793 1.71357,-0.42316 2.25578,-0.21404 1.9356,0.7465 -0.30171,0.90514 -7.82184,2.53228 -23.38038,5.05883 -12.61458,2.04849 -28.1841,4.66155 -34.59894,5.80681 -12.63129,2.25511 -17.813,2.63025 -16.28666,1.1791 z m 93.13777,-1.8468 c 0.34376,-0.9625 2.94951,-4.675 5.79056,-8.25 3.16807,-6.28989 16.04882,-15.364945 10.96497,-22.777492 -2.6572,-3.793681 -8.14541,-2.926126 -33.12092,5.235627 -12.55231,4.101973 -24.89049,8.001745 -27.41818,8.666162 -4.62623,1.216033 -7.9042,0.780593 -7.9042,-1.049968 0,-0.862477 4.50665,-2.41602 25,-8.618051 2.475,-0.749025 10.35,-3.209693 17.5,-5.468151 7.15,-2.258458 15.81004,-4.364933 19.24666,-4.656538 4.18849,-0.355403 6.36548,-0.01027 9.29526,3.319006 4.1949,4.766901 4.12165,8.565838 -6.93374,23.206135 -6.18606,8.19203 -9.80032,12.14327 -11.1076,12.14327 -1.41696,0 -1.76982,-0.47037 -1.31281,-1.75 z m -124.786127,-4 C 76.294276,65.665585 77.04481,29.182902 77.741916,19.147219 78.646171,6.1293597 79.765073,3.0325147 84.312885,0.96039274 90.55196,-1.8823203 95.703389,1.3656117 104.4562,13.660569 c 2.60209,3.655134 6.8831,9.323155 9.51335,12.595603 4.54592,5.655864 6.05685,9.550095 3.70534,9.550095 -1.77766,0 -6.00542,-4.981191 -13.92308,-16.404345 C 92.925961,3.7830077 89.0524,2.0334027 84.427741,6.0562667 c -2.358308,2.051427 -2.236931,2.684162 -2.502522,33.2500003 -0.148151,17.05 -0.503099,31.787498 -0.788775,32.749998 -0.285676,0.9625 -1.389086,1.75 -2.452023,1.75 -1.136447,0 -1.973131,-0.72094 -2.030968,-1.75 z m 26.098357,-1.13992 c 0,-0.48946 0.9,-5.26399 2,-10.61008 1.1,-5.346085 2,-9.944404 2,-10.218485 0,-0.463819 -3.1517,0.115817 -7.250001,1.333362 -1.10866,0.329366 -1.75,-0.01869 -1.75,-0.949724 0,-1.051272 3.202501,-2.211666 11.250001,-4.076334 13.8072,-3.199232 14.11522,-3.207005 13.42668,-0.338817 -0.29707,1.2375 -0.84864,3.951902 -1.2257,6.032004 -0.68476,3.777531 -0.68251,3.78061 1.90211,2.602978 4.14388,-1.888078 5.83554,0.212371 5.03447,6.251066 -0.37018,2.79062 -0.24929,4.86395 0.28361,4.86395 1.88497,0 3.32883,-2.49205 3.32883,-5.74545 0,-2.218633 0.82675,-4.172203 2.45455,-5.800003 2.97629,-2.97629 5.11632,-3.124903 6.54545,-0.454545 1.19837,2.239182 0.18639,4.923053 -3.29928,8.749998 l -2.04935,2.25 2.2057,0 c 1.21314,0 2.46472,-0.675 2.7813,-1.5 0.63985,-1.66741 3.36163,-2.07224 3.36163,-0.5 0,0.55 -0.9,1.9 -2,3 -2.12802,2.12802 -5.54737,2.57178 -7.97716,1.03528 -1.00414,-0.63498 -2.01846,-0.44423 -3.16754,0.59567 -0.9297,0.84137 -2.73998,1.3811 -4.02283,1.19941 -2.50132,-0.35428 -2.76042,-1.73793 -1.41949,-7.58036 0.64578,-2.813639 0.48317,-3.249998 -1.21108,-3.249998 -2.66601,0 -4.10181,1.979208 -5.51061,7.596198 -1.27348,5.07751 -3.70356,7.21867 -3.67393,3.23713 0.01,-1.28333 0.70148,-5.48333 1.53761,-9.33333 3.05491,-14.066416 3.13988,-12.584449 -0.67997,-11.859285 -4.87045,0.924611 -5.48791,1.704459 -6.8302,8.626577 -2.7144,13.998058 -3.22464,15.732708 -4.62766,15.732708 -0.77943,0 -1.41714,-0.40046 -1.41714,-0.88992 z m 35,-13.815856 c 0,-2.363566 -2.46786,-0.85802 -2.84604,1.736258 -0.30212,2.072528 -0.14347,2.205698 1.25,1.049228 0.87782,-0.72853 1.59604,-1.981997 1.59604,-2.785486 z m -10.476,-10.913076 c -1.4918,-1.491806 -1.48525,-1.766488 0.0836,-3.5 2.03979,-2.253942 2.44716,-2.292836 4.93804,-0.471465 1.89179,1.383316 1.89247,1.448778 0.0361,3.5 -2.2761,2.515057 -2.95121,2.577989 -5.05774,0.471465 z m 46.4941,-10.876406 C 159.05217,26.645109 145.8981,23.532656 126.94502,21.213304 c -5.00208,-0.61212 -8.89734,-1.076752 -8.60498,-1.549793 1.26817,-2.051945 24.74061,1.459278 38.31312,5.731229 7.30244,2.298443 21.98424,9.886248 25.06294,12.952946 2.58431,2.574245 -0.26832,1.484096 -7.94619,-3.036679 z m 16.9819,1.661927 c 0,-0.641667 -0.85478,-1.166667 -1.89951,-1.166667 -1.04473,0 -4.30723,-1.636219 -7.25,-3.636041 -15.50804,-10.538823 -33.68887,-16.253271 -54.83964,-17.23674 -11.32587,-0.526631 -13.53874,-0.887134 -13.79842,-2.247924 -0.88014,-4.6121763 22.74402,-3.5736963 41.78757,1.836914 7.60698,2.161277 22.75346,9.36276 29.90121,14.216701 5.44511,3.697705 8.18879,7.310421 6.6901,8.809117 -0.32522,0.325219 -0.59131,0.06631 -0.59131,-0.57536 z"
     id="path4178"
     inkscape:connector-curvature="0"
     sodipodi:nodetypes="ccssssscsssccsssssccssscsssscsssscsssssssssssssssssssssssssssssssssssssccssssssssssssssssscscsssssscssssssssssssssssssssssssscssssssssssssccssssssssssssssssccsssssssssssssccssccssssssssssssssssssssssssssssssssssssssssssscssssssssssssssscssssccsssssssssssssssssssssssssssssssssscsssssscssssssssssssssssssscssscsssssssssscsssccssssscssssssssssssssccssssccccsscssssssssssscssssssssscsssssssssssssscssssssscsssscsssssssssssscssscssssssssssssscssssssssssssscssssscsscsssssssssssssssssssssssssssssssssssssssscscssccsssssssssssssssssssssssssssccssssssssssssssssssssssssssssssssssssscsssssssssscsssssssssscssssssssssssssssss" />
  <circle
     style="fill:#000000;fill-opacity:1;stroke:none;stroke-width:0.2;stroke-miterlimit:4;stroke-dasharray:none;stroke-opacity:1"
     id="path4180"
     cx="208.89784"
     cy="51.823914"
     r="2.1051471" />
  <rect
     style="fill:#000000;fill-opacity:1;stroke:none;stroke-width:0.2;stroke-miterlimit:4;stroke-dasharray:none;stroke-opacity:1"
     id="rect4182"
     width="10.345294"
     height="2.8870587"
     x="161.87823"
     y="-126.91866"
     ry="10"
     transform="matrix(0.60397024,0.79700687,-0.79700687,0.60397024,0,0)" />
  <g
     id="g4202"
     transform="matrix(0.24425233,0.96971171,-0.96971171,0.24425233,405.84918,55.943853)">
    <circle
       r="2.1051471"
       cy="217.51926"
       cx="74.804588"
       id="path4180-8"
       style="fill:#000000;fill-opacity:1;stroke:none;stroke-width:0.2;stroke-miterlimit:4;stroke-dasharray:none;stroke-opacity:1" />
    <rect
       transform="matrix(0.60397024,0.79700687,-0.79700687,0.60397024,0,0)"
       ry="10"
       y="80.029648"
       x="212.95024"
       height="2.8870587"
       width="10.345294"
       id="rect4182-4"
       style="fill:#000000;fill-opacity:1;stroke:none;stroke-width:0.2;stroke-miterlimit:4;stroke-dasharray:none;stroke-opacity:1" />
  </g>
  <circle
     style="fill:#000000;fill-opacity:1;stroke:none;stroke-width:0.2;stroke-miterlimit:4;stroke-dasharray:none;stroke-opacity:1"
     id="path4180-4"
     cx="41.444614"
     cy="-231.87759"
     r="2.1051471"
     transform="matrix(-0.85520861,0.51828393,-0.51828393,-0.85520861,0,0)" />
  <rect
     style="fill:#000000;fill-opacity:1;stroke:none;stroke-width:0.2;stroke-miterlimit:4;stroke-dasharray:none;stroke-opacity:1"
     id="rect4182-9"
     width="10.345294"
     height="2.8870587"
     x="-165.37057"
     y="-164.80455"
     ry="10"
     transform="matrix(-0.9295964,-0.36857907,0.36857907,-0.9295964,0,0)" />
  <circle
     style="fill:#000000;fill-opacity:1;stroke:none;stroke-width:0.2;stroke-miterlimit:4;stroke-dasharray:none;stroke-opacity:1"
     id="path4180-43"
     cx="-87.205574"
     cy="-72.53344"
     r="2.1051471"
     transform="matrix(-0.74281099,-0.66950118,0.66950118,-0.74281099,0,0)" />
  <rect
     style="fill:#000000;fill-opacity:1;stroke:none;stroke-width:0.2;stroke-miterlimit:4;stroke-dasharray:none;stroke-opacity:1"
     id="rect4182-1"
     width="10.345294"
     height="2.8870587"
     x="-116.07308"
     y="33.969658"
     ry="10"
     transform="matrix(0.08496131,-0.99638425,0.99638425,0.08496131,0,0)" />
  <circle
     style="fill:#000000;fill-opacity:1;stroke:none;stroke-width:0.2;stroke-miterlimit:4;stroke-dasharray:none;stroke-opacity:1"
     id="path4180-0"
     cx="17.086533"
     cy="90.82296"
     r="2.1051471"
     transform="matrix(0.3626779,-0.93191456,0.93191456,0.3626779,0,0)" />
  <rect
     style="fill:#000000;fill-opacity:1;stroke:none;stroke-width:0.2;stroke-miterlimit:4;stroke-dasharray:none;stroke-opacity:1"
     id="rect4182-6"
     width="10.345294"
     height="2.8870587"
     x="77.112427"
     y="49.510544"
     ry="10"
     transform="matrix(0.96178896,-0.27379188,0.27379188,0.96178896,0,0)" />
</svg>
